<?xml version="1.0" encoding="utf-8"?>
<!-- Generator: Adobe Illustrator 19.0.1, SVG Export Plug-In . SVG Version: 6.00 Build 0)  -->
<svg version="1.1" id="Layer_1" xmlns:sketch="http://www.bohemiancoding.com/sketch/ns"
	 xmlns="http://www.w3.org/2000/svg" xmlns:xlink="http://www.w3.org/1999/xlink" x="0px" y="0px" viewBox="-210 113.7 298 337.3"
	 style="enable-background:new -210 113.7 298 337.3;" xml:space="preserve">
<style type="text/css">
	.st0{fill:#1572B6;}
	.st1{fill:#33A9DC;}
	.st2{fill:#FFFFFF;}
	.st3{fill:#EBEBEB;}
</style>
<title>Slice 1</title>
<description>Created with Sketch (http://www.bohemiancoding.com/sketch)</description>
<g id="Page_1">
	<g id="Layer_1_1_">
		<path id="Shape_1_" class="st0" d="M-182.9,417.3l-27.1-303.6H87.5L60.4,417.2L-61.4,451L-182.9,417.3z"/>
		<path id="Shape_2_" class="st1" d="M-61.2,425.2l98.4-27.3l23.2-259.4H-61.2V425.2z"/>
		<g id="Group" transform="translate(55.000000, 142.000000)">
			<path id="Shape_3_" class="st2" d="M-116.2,106.5h49.3l3.4-38.1h-52.7V31.1h0.1h93.2l-0.9,10l-9.2,102.6h-83.3V106.5z"/>
			<path id="Shape_4_" class="st3" d="M-116,203.2l-0.2,0l-41.5-11.2l-2.7-29.7h-20.2h-17.2l5.2,58.5l76.3,21.2l0.2,0V203.2z"/>
			<path id="Shape_5_" class="st2" d="M-70.1,142.2l-4.5,49.9l-41.5,11.2V242l76.3-21.2l0.6-6.3l6.5-72.4H-70.1z"/>
			<path id="Shape_6_" class="st3" d="M-116.1,31.1v23.1v14v0.1h-89.8h-0.1l-0.7-8.4l-1.7-18.9l-0.9-10H-116.1z"/>
			<path id="Shape_7_" class="st3" d="M-116.2,106.5v23.1v14v0.1H-157h-0.1l-0.7-8.4l-1.7-18.9l-0.9-10H-116.2z"/>
		</g>
	</g>
</g>
</svg>
