<?xml version="1.0" encoding="utf-8"?>
<!-- Generator: Adobe Illustrator 19.0.1, SVG Export Plug-In . SVG Version: 6.00 Build 0)  -->
<svg version="1.1" id="logo-bg-light" xmlns="http://www.w3.org/2000/svg" xmlns:xlink="http://www.w3.org/1999/xlink" x="0px"
	 y="0px" viewBox="0 0 827.9 335.4" style="enable-background:new 0 0 827.9 335.4;" xml:space="preserve">
<style type="text/css">
	.st0{opacity:0.1;}
	.st1{fill:url(#tube_2_);}
	.st2{fill:url(#liquid_2_);}
	.st3{fill:#333333;}
	.st4{opacity:0.3;fill:#FFFFFF;}
	.st5{opacity:0.5;fill:#FFFFFF;}
	.st6{fill:url(#SVGID_1_);}
	.st7{filter:url(#Adobe_OpacityMaskFilter);}
	.st8{opacity:0.75;mask:url(#SVGID_2_);}
	.st9{fill:#FFFFFF;}
	.st10{display:none;opacity:0.3;}
	.st11{display:inline;}
	.st12{display:inline;fill:#FFFFFF;}
</style>
<g id="test-tube_1_">
	<path id="shadow_1_" class="st0" d="M744.1,6.7c-0.2,0.6-0.2,1.3,0,1.9c0,0,2.1,13.7-0.3,19.8l-99.7,259.2l0,0
		c-7.1,19,2.4,40.3,21.4,47.6c19,7.3,40.3-2.1,47.8-21l0,0l99.7-259.2c1.9-5.1,13.1-14.9,13.1-14.9c0.6-0.4,1-0.9,1.3-1.5l0-0.1
		c0.1-0.1,0.1-0.2,0.2-0.3c2.6-6.7-14-19.3-37-28.1c-23-8.9-43.8-10.6-46.3-3.9c0,0.1-0.1,0.2-0.1,0.3L744.1,6.7z"/>
	
		<linearGradient id="tube_2_" gradientUnits="userSpaceOnUse" x1="666.2848" y1="262.0476" x2="729.4406" y2="325.2035" gradientTransform="matrix(0.9138 -0.4062 0.4062 0.9138 -31.7748 185.6729)">
		<stop  offset="0" style="stop-color:#919191"/>
		<stop  offset="1" style="stop-color:#FFFFFF"/>
	</linearGradient>
	<path id="tube_1_" class="st1" d="M741.2,4.5c-0.2,0.6-0.2,1.3,0,1.9c0,0,2.1,13.7-0.3,19.8l-99.7,259.2l0,0
		c-7.1,19,2.4,40.3,21.4,47.6c19,7.3,40.3-2.1,47.8-21l0,0l99.7-259.2c1.9-5.1,13.1-14.9,13.1-14.9c0.6-0.4,1-0.9,1.3-1.5l0-0.1
		c0.1-0.1,0.1-0.2,0.2-0.3c2.6-6.7-14-19.3-37-28.1c-23-8.9-43.8-10.6-46.3-3.9c0,0.1-0.1,0.2-0.1,0.3L741.2,4.5z"/>
	
		<linearGradient id="liquid_2_" gradientUnits="userSpaceOnUse" x1="642.5371" y1="310.2268" x2="680.7717" y2="348.4614" gradientTransform="matrix(0.9138 -0.4062 0.4062 0.9138 -31.7748 185.6729)">
		<stop  offset="0" style="stop-color:#990000"/>
		<stop  offset="1" style="stop-color:#E80000"/>
	</linearGradient>
	<path id="liquid_1_" class="st2" d="M772.5,121.8l-71.9,186.9l0,0c-5.3,13.4-20.7,20.4-34.4,15.1c-13.7-5.3-21.1-21-16.1-34.5l0,0
		l45.9-119.4c0,0,5.7-9.3,17-15.8c11.3-6.6,20.6-5.2,33.1-10.8C758.7,137.7,772.5,121.8,772.5,121.8z"/>
	
		<ellipse id="top_1_" transform="matrix(0.9334 0.359 -0.359 0.9334 59.6243 -279.6118)" class="st3" cx="782.8" cy="20.8" rx="27.7" ry="7.3"/>
	<path id="side-reflection_1_" class="st4" d="M741.2,6.5c0,0,2,13.8-0.3,19.8l-99.7,259.2l0,0c-7.1,19,2.4,40.3,21.4,47.6
		c3.3,1.3,6.7,2,10,2.3c-12.8-9.6-18.3-26.9-12.4-42.6l0,0l97.7-254C758,38.7,744.7,26.2,741.2,6.5z"/>
	<g id="bubbles_1_">
		<circle class="st5" cx="709.1" cy="173.6" r="2.9"/>
		<circle class="st5" cx="728" cy="194.6" r="4.4"/>
		<circle class="st5" cx="699.1" cy="219.5" r="8.2"/>
		<circle class="st5" cx="685.9" cy="234.6" r="4.4"/>
		<circle class="st5" cx="703.3" cy="266.9" r="2.9"/>
	</g>
</g>
<g id="jekyll-text_1_">
	<g class="st0">
		<g>
			<path d="M195.1,157.7c4.4,3.5,12.4,1.5,17.7-4.4c5.6-6.2,6.5-14.1,2.1-17.6c-4.4-3.5-12.4-1.5-17.7,4.7
				C191.6,146.5,190.7,154.2,195.1,157.7z M182.1,169.2c-1.2,0-3.2,2.1-1.5,2.9c2.4,0.9,3.5,2.9,3.5,5.9
				c-2.1,12.1-17.1,25.9-23,30.6c-1.5,1.5,0.6,4.7,2.1,3.5c3.2-2.6,10-7.9,15.6-15c-9.1,20.3-26.8,46.5-33.6,55.6
				c-26.5,36.8-66.8,70.6-94.5,70.6c-22.1,0-40.9-15-45-37.1c-0.3-2.4-3.5-2.9-2.9,0.3c5,30.3,28.3,42.1,56.5,42.1
				c30.9,0,67.2-22.4,87.1-45.3c32.3-37.1,53.3-79.7,47.7-103.8C191.9,170.4,185.7,168.9,182.1,169.2z M380.7,249.8
				c8.5-2.1,15.6-6.8,15.6-14.2c0-0.7-1.5-0.7-1.5,0c0,4.4-5,8-10.6,8.9c-13.2,2.1-39.4-13.5-51.8-29.4c13.2,5,40.3-2.3,53-11.4
				c11.8-8.5,16.5-17.9,17.4-25.6c1.5-12.6-12.4-20-31.5-12.6c-12.4,5-27.1,15.9-42.4,36.2c16.2-26.8,48-70.3,79.2-98.2
				c38-33.8,60-27.3,25.9,8.5c-14.1,14.7-40.6,33.8-58.9,42.1c-5.6,2.4-2.9,5.6,1.2,3.8c19.4-8.5,45.3-26.2,60.9-40.9
				c46.2-44.4,7.7-77.9-43.6-30.9c-34.7,32.1-57.4,65.6-77.1,109.1c-6.8,8.2-11.8,15-18,20.3c-0.7,0.6-1.3,1.3-1.8,1.9
				c-17,14.6-43.7,34.2-60.3,34.5c-11.8,0.3-16.8-8.5-14.7-20c3.2-17.9,21.8-39.1,37.7-46.5c20.6-9.4,32.7,8.8,5.6,23.5
				c-10.3,5.3-22.7,8.2-27.7,8.2c-5.9,0-5.3,2.4-0.3,2.6c8.2,0.3,21.5-3.2,30.3-7.4c27.7-13.2,29.4-37.9-0.6-38.8
				c-32.7-1.2-71.8,26.8-71.5,61.8c0.3,15.9,13,24.4,30.3,24.4c28.9-0.3,54.7-22.3,75.8-41.6c3-2.5,6-5.3,8.9-8.2
				c-7.4,18.8-11.2,36.2-9.4,49.1c1.2,9.4,6.5,13.8,10.6,17.3c0.9,0.6,2.6,0,1.5-1.8c-6.2-7.4-4.4-29.2,4.1-50.3
				C324.2,238.4,351.9,256.3,380.7,249.8z M346,188.5c33.8-30.3,47.1-3.2,25.6,13.2c-11.2,8.5-33.3,15-40.3,10.9l-1.5-0.9
				c-0.9-1.5-1.8-2.9-2.4-4.4C333,200.5,339.5,194.3,346,188.5z M533.8,154.1c13.5,1.5,7.9-15-5.9-10.9
				c-6.2,1.8-12.1,13.5-16.5,23.8c-13.5,20.3-36.2,47.9-52.1,62.3c-14.1,12.1-27.1,15.3-11.2-7.4c6.5-9.1,14.7-18.8,19.4-28.5
				c11.2-24.4-12.7-35.3-31.8-20.6c-11.2,8.5-26.2,26.2-38,35.9c-3.2,2.6-2.4,6.5,0.9,3.8c9.4-7.6,25.9-25,40-35.3
				c11.8-9.1,16.5-3.2,9.7,4.4c-9.4,10.9-25.9,29.7-30,41.8c-5.9,17.9,1.2,25.9,12.9,25.9c16.2,0,40.3-25.3,56.5-45.3
				c5.3-6.8,11.2-14.7,16.2-22.3c-14.1,27.3-28.8,55-47.1,80c-25.9,35.3-58.3,61.8-88.9,61.8c-22.1,0-41.2-15-45.3-37.1
				c-0.3-2.4-3.2-2.9-2.9,0.3c5,30.3,28.3,42.1,56.5,42.1c30.9,0,60.6-17.9,81.5-40c42.1-44.4,47.1-94.4,60-122.3
				C523.8,154.1,529.4,153.6,533.8,154.1z M704.9,111.3c6.2-10.6,5.9-18.8-8.5-18.8c-10.9,0.3-30.6,7.9-39.7,15
				c-2.1,2.1-1.2,3.2,1.5,2.1c1.8-0.6,3.8-1.8,5.9-2.6c10.3-5.6,6.2,6.2,3.8,10.6c-12.4,21.5-34.1,51.8-45.6,66.8
				c-5.5,7.4-11.7,14.8-17.7,21c-11.1,10.5-32.9,29.1-49.4,35.3c-53.6,20,14.7-71.2,20.3-78.5c12.7-15.9,40.9-43.5,49.4-57.3
				c6.2-10.6,5.9-18.8-8.5-18.8c-10.9,0.3-30.6,7.9-39.7,15c-2.1,2.1-1.2,3.2,1.5,2.1c1.8-0.6,3.8-1.8,5.9-2.6
				c10.3-5.6,6.2,6.2,3.8,10.6c-12.4,21.5-34.1,51.8-45.6,66.8c-9.4,12.6-20.9,25.3-29.7,32.3c-3.5,2.9-1.5,5.6,2.1,3.2
				c3.2-2.1,7.9-6.8,13.2-12.4c-9.7,19.4-17.7,46.8,7.9,50c21.8,3,47.8-19.3,64.5-35.8c1.8-1.8,3.9-3.8,6-6c0.5-0.5,1-1,1.5-1.5
				c-9.7,19.4-17.6,46.7,8,49.9c28,3.8,62.7-33.8,76.2-47.6c2.6-2.6,1.8-7.1-2.6-2.6c-7.9,8.2-34.7,32.6-54.2,40
				c-53.6,20,14.7-71.2,20.3-78.5C668.1,152.8,696.4,125.1,704.9,111.3z"/>
		</g>
	</g>
	<g>
		<g>
			<g>
				<linearGradient id="SVGID_1_" gradientUnits="userSpaceOnUse" x1="352.9645" y1="325.9872" x2="352.9645" y2="60.5154">
					<stop  offset="0" style="stop-color:#1A1A1A"/>
					<stop  offset="0.4026" style="stop-color:#4A4A4C"/>
					<stop  offset="1" style="stop-color:#333333"/>
				</linearGradient>
				<path class="st6" d="M192.3,154.9c4.4,3.5,12.4,1.5,17.7-4.4c5.6-6.2,6.5-14.1,2.1-17.6c-4.4-3.5-12.4-1.5-17.7,4.7
					C188.7,143.7,187.8,151.4,192.3,154.9z M179.3,166.4c-1.2,0-3.2,2.1-1.5,2.9c2.4,0.9,3.5,2.9,3.5,5.9
					c-2.1,12.1-17.1,25.9-23,30.6c-1.5,1.5,0.6,4.7,2.1,3.5c3.2-2.6,10-7.9,15.6-15c-9.1,20.3-26.8,46.5-33.6,55.6
					C116,286.6,75.7,320.4,48,320.4c-22.1,0-40.9-15-45-37.1c-0.3-2.4-3.5-2.9-2.9,0.3c5,30.3,28.3,42,56.5,42
					c30.9,0,67.2-22.4,87.1-45.3c32.3-37.1,53.3-79.7,47.7-103.8C189,167.5,182.8,166.1,179.3,166.4z M377.9,247
					c8.5-2.1,15.6-6.8,15.6-14.2c0-0.7-1.5-0.7-1.5,0c0,4.4-5,8-10.6,8.9c-13.2,2.1-39.4-13.5-51.8-29.4c13.2,5,40.3-2.3,53-11.4
					c11.8-8.5,16.5-17.9,17.4-25.6c1.5-12.6-12.4-20-31.5-12.6c-12.4,5-27.1,15.9-42.4,36.2c16.2-26.8,48-70.3,79.2-98.2
					c38-33.8,60-27.3,25.9,8.5c-14.1,14.7-40.6,33.8-58.9,42.1c-5.6,2.4-2.9,5.6,1.2,3.8c19.4-8.5,45.3-26.2,60.9-40.9
					c46.2-44.4,7.7-77.9-43.6-30.9c-34.7,32.1-57.4,65.6-77.1,109.1c-6.8,8.2-11.8,15-18,20.3c-0.7,0.6-1.3,1.3-1.8,1.9
					c-17,14.6-43.7,34.2-60.3,34.5c-11.8,0.3-16.8-8.5-14.7-20c3.2-17.9,21.8-39.1,37.7-46.5c20.6-9.4,32.7,8.8,5.6,23.5
					c-10.3,5.3-22.7,8.2-27.7,8.2c-5.9,0-5.3,2.4-0.3,2.6c8.2,0.3,21.5-3.2,30.3-7.4c27.7-13.2,29.4-37.9-0.6-38.8
					c-32.7-1.2-71.8,26.8-71.5,61.8c0.3,15.9,13,24.4,30.3,24.4c28.9-0.3,54.7-22.3,75.8-41.6c3-2.5,6-5.3,8.9-8.2
					c-7.4,18.8-11.2,36.2-9.4,49.1c1.2,9.4,6.5,13.8,10.6,17.3c0.9,0.6,2.6,0,1.5-1.8c-6.2-7.4-4.4-29.2,4.1-50.3
					C321.4,235.6,349,253.5,377.9,247z M343.2,185.6c33.8-30.3,47.1-3.2,25.6,13.2c-11.2,8.5-33.3,15-40.3,10.9l-1.5-0.9
					c-0.9-1.5-1.8-2.9-2.4-4.4C330.2,197.7,336.7,191.5,343.2,185.6z M531,151.3c13.5,1.5,7.9-15-5.9-10.9
					c-6.2,1.8-12.1,13.5-16.5,23.8c-13.5,20.3-36.2,47.9-52.1,62.3c-14.1,12.1-27.1,15.3-11.2-7.4c6.5-9.1,14.7-18.8,19.4-28.5
					c11.2-24.4-12.7-35.3-31.8-20.6c-11.2,8.5-26.2,26.2-38,35.9c-3.2,2.6-2.4,6.5,0.9,3.8c9.4-7.6,25.9-25,40-35.3
					c11.8-9.1,16.5-3.2,9.7,4.4c-9.4,10.9-25.9,29.7-30,41.8c-5.9,17.9,1.2,25.9,12.9,25.9c16.2,0,40.3-25.3,56.5-45.3
					c5.3-6.8,11.2-14.7,16.2-22.3c-14.1,27.3-28.8,55-47.1,80c-25.9,35.3-58.3,61.8-88.9,61.8c-22.1,0-41.2-15-45.3-37.1
					c-0.3-2.4-3.2-2.9-2.9,0.3c5,30.3,28.3,42,56.5,42c30.9,0,60.6-17.9,81.5-40c42.1-44.4,47.1-94.4,60-122.3
					C521,151.3,526.6,150.7,531,151.3z M702.1,108.5c6.2-10.6,5.9-18.8-8.5-18.8c-10.9,0.3-30.6,7.9-39.7,15
					c-2.1,2.1-1.2,3.2,1.5,2.1c1.8-0.6,3.8-1.8,5.9-2.6c10.3-5.6,6.2,6.2,3.8,10.6c-12.4,21.5-34.1,51.8-45.6,66.8
					c-5.5,7.4-11.7,14.8-17.7,21c-11.1,10.5-32.9,29.1-49.4,35.3c-53.6,20,14.7-71.2,20.3-78.5c12.7-15.9,40.9-43.5,49.4-57.3
					c6.2-10.6,5.9-18.8-8.5-18.8c-10.9,0.3-30.6,7.9-39.7,15c-2.1,2.1-1.2,3.2,1.5,2.1c1.8-0.6,3.8-1.8,5.9-2.6
					c10.3-5.6,6.2,6.2,3.8,10.6c-12.4,21.5-34.1,51.8-45.6,66.8c-9.4,12.6-20.9,25.3-29.7,32.3c-3.5,2.9-1.5,5.6,2.1,3.2
					c3.2-2.1,7.9-6.8,13.2-12.4c-9.7,19.4-17.7,46.8,7.9,50c21.8,3,47.8-19.3,64.5-35.8c1.8-1.8,3.9-3.8,6-6c0.5-0.5,1-1,1.5-1.5
					c-9.7,19.4-17.6,46.7,8,49.9c28,3.8,62.7-33.8,76.2-47.6c2.6-2.6,1.8-7.1-2.6-2.6c-7.9,8.2-34.7,32.6-54.2,40
					c-53.6,20,14.7-71.2,20.3-78.5C665.3,150,693.6,122.3,702.1,108.5z"/>
			</g>
		</g>
		<defs>
			<filter id="Adobe_OpacityMaskFilter" filterUnits="userSpaceOnUse" x="0" y="60.5" width="705.9" height="265.5">
				
					<feColorMatrix  type="matrix" values="-1 0 0 0 1  0 -1 0 0 1  0 0 -1 0 1  0 0 0 1 0" color-interpolation-filters="sRGB" result="source"/>
			</filter>
		</defs>
		<mask maskUnits="userSpaceOnUse" x="0" y="60.5" width="705.9" height="265.5" id="SVGID_2_">
			<g class="st7">
				
					<image style="overflow:visible;" width="711" height="270" xlink:href="8D908568E72589D8.jpg"  transform="matrix(1 0 0 1 -2.2943 58.3515)">
				</image>
			</g>
		</mask>
		<g class="st8">
			<g>
				<path class="st9" d="M192.3,154.9c4.4,3.5,12.4,1.5,17.7-4.4c5.6-6.2,6.5-14.1,2.1-17.6c-4.4-3.5-12.4-1.5-17.7,4.7
					C188.7,143.7,187.8,151.4,192.3,154.9z M179.3,166.4c-1.2,0-3.2,2.1-1.5,2.9c2.4,0.9,3.5,2.9,3.5,5.9
					c-2.1,12.1-17.1,25.9-23,30.6c-1.5,1.5,0.6,4.7,2.1,3.5c3.2-2.6,10-7.9,15.6-15c-9.1,20.3-26.8,46.5-33.6,55.6
					C116,286.6,75.7,320.4,48,320.4c-22.1,0-40.9-15-45-37.1c-0.3-2.4-3.5-2.9-2.9,0.3c5,30.3,28.3,42,56.5,42
					c30.9,0,67.2-22.4,87.1-45.3c32.3-37.1,53.3-79.7,47.7-103.8C189,167.5,182.8,166.1,179.3,166.4z M377.9,247
					c8.5-2.1,15.6-6.8,15.6-14.2c0-0.7-1.5-0.7-1.5,0c0,4.4-5,8-10.6,8.9c-13.2,2.1-39.4-13.5-51.8-29.4c13.2,5,40.3-2.3,53-11.4
					c11.8-8.5,16.5-17.9,17.4-25.6c1.5-12.6-12.4-20-31.5-12.6c-12.4,5-27.1,15.9-42.4,36.2c16.2-26.8,48-70.3,79.2-98.2
					c38-33.8,60-27.3,25.9,8.5c-14.1,14.7-40.6,33.8-58.9,42.1c-5.6,2.4-2.9,5.6,1.2,3.8c19.4-8.5,45.3-26.2,60.9-40.9
					c46.2-44.4,7.7-77.9-43.6-30.9c-34.7,32.1-57.4,65.6-77.1,109.1c-6.8,8.2-11.8,15-18,20.3c-0.7,0.6-1.3,1.3-1.8,1.9
					c-17,14.6-43.7,34.2-60.3,34.5c-11.8,0.3-16.8-8.5-14.7-20c3.2-17.9,21.8-39.1,37.7-46.5c20.6-9.4,32.7,8.8,5.6,23.5
					c-10.3,5.3-22.7,8.2-27.7,8.2c-5.9,0-5.3,2.4-0.3,2.6c8.2,0.3,21.5-3.2,30.3-7.4c27.7-13.2,29.4-37.9-0.6-38.8
					c-32.7-1.2-71.8,26.8-71.5,61.8c0.3,15.9,13,24.4,30.3,24.4c28.9-0.3,54.7-22.3,75.8-41.6c3-2.5,6-5.3,8.9-8.2
					c-7.4,18.8-11.2,36.2-9.4,49.1c1.2,9.4,6.5,13.8,10.6,17.3c0.9,0.6,2.6,0,1.5-1.8c-6.2-7.4-4.4-29.2,4.1-50.3
					C321.4,235.6,349,253.5,377.9,247z M343.2,185.6c33.8-30.3,47.1-3.2,25.6,13.2c-11.2,8.5-33.3,15-40.3,10.9l-1.5-0.9
					c-0.9-1.5-1.8-2.9-2.4-4.4C330.2,197.7,336.7,191.5,343.2,185.6z M531,151.3c13.5,1.5,7.9-15-5.9-10.9
					c-6.2,1.8-12.1,13.5-16.5,23.8c-13.5,20.3-36.2,47.9-52.1,62.3c-14.1,12.1-27.1,15.3-11.2-7.4c6.5-9.1,14.7-18.8,19.4-28.5
					c11.2-24.4-12.7-35.3-31.8-20.6c-11.2,8.5-26.2,26.2-38,35.9c-3.2,2.6-2.4,6.5,0.9,3.8c9.4-7.6,25.9-25,40-35.3
					c11.8-9.1,16.5-3.2,9.7,4.4c-9.4,10.9-25.9,29.7-30,41.8c-5.9,17.9,1.2,25.9,12.9,25.9c16.2,0,40.3-25.3,56.5-45.3
					c5.3-6.8,11.2-14.7,16.2-22.3c-14.1,27.3-28.8,55-47.1,80c-25.9,35.3-58.3,61.8-88.9,61.8c-22.1,0-41.2-15-45.3-37.1
					c-0.3-2.4-3.2-2.9-2.9,0.3c5,30.3,28.3,42,56.5,42c30.9,0,60.6-17.9,81.5-40c42.1-44.4,47.1-94.4,60-122.3
					C521,151.3,526.6,150.7,531,151.3z M702.1,108.5c6.2-10.6,5.9-18.8-8.5-18.8c-10.9,0.3-30.6,7.9-39.7,15
					c-2.1,2.1-1.2,3.2,1.5,2.1c1.8-0.6,3.8-1.8,5.9-2.6c10.3-5.6,6.2,6.2,3.8,10.6c-12.4,21.5-34.1,51.8-45.6,66.8
					c-5.5,7.4-11.7,14.8-17.7,21c-11.1,10.5-32.9,29.1-49.4,35.3c-53.6,20,14.7-71.2,20.3-78.5c12.7-15.9,40.9-43.5,49.4-57.3
					c6.2-10.6,5.9-18.8-8.5-18.8c-10.9,0.3-30.6,7.9-39.7,15c-2.1,2.1-1.2,3.2,1.5,2.1c1.8-0.6,3.8-1.8,5.9-2.6
					c10.3-5.6,6.2,6.2,3.8,10.6c-12.4,21.5-34.1,51.8-45.6,66.8c-9.4,12.6-20.9,25.3-29.7,32.3c-3.5,2.9-1.5,5.6,2.1,3.2
					c3.2-2.1,7.9-6.8,13.2-12.4c-9.7,19.4-17.7,46.8,7.9,50c21.8,3,47.8-19.3,64.5-35.8c1.8-1.8,3.9-3.8,6-6c0.5-0.5,1-1,1.5-1.5
					c-9.7,19.4-17.6,46.7,8,49.9c28,3.8,62.7-33.8,76.2-47.6c2.6-2.6,1.8-7.1-2.6-2.6c-7.9,8.2-34.7,32.6-54.2,40
					c-53.6,20,14.7-71.2,20.3-78.5C665.3,150,693.6,122.3,702.1,108.5z"/>
			</g>
		</g>
	</g>
	<g id="highlight_1_" class="st10">
		<g class="st11">
			<path class="st9" d="M603.5,208.2c-0.1,0.1-0.3,0.3-0.4,0.4c-4.2,9.1-7.6,19.4-7.3,28c0.3-9.4,4.5-20.6,9.2-29.9
				C604.5,207.2,604,207.7,603.5,208.2z"/>
			<path class="st9" d="M523,202.1c-4.2,9.1-7.6,19.4-7.3,28c0.3-9.5,4.6-20.7,9.2-30C524.3,200.8,523.7,201.4,523,202.1z"/>
			<path class="st9" d="M653.4,107.2c0.1-0.2,0.3-0.3,0.5-0.5c9.1-7.1,28.8-14.7,39.7-15c8.2,0,11.9,2.7,12.3,7
				c0.5-5.4-2.9-9-12.3-9c-10.9,0.3-30.6,7.9-39.7,15C652.4,106.1,652.4,107.1,653.4,107.2z"/>
			<path class="st9" d="M686.5,204.4c-7.9,8.2-34.7,32.6-54.2,40c-14.2,5.3-19.8,2.8-20.3-3.9c-0.5,8.1,4.8,11.7,20.3,5.9
				c19.4-7.4,46.2-31.8,54.2-40c2.1-2.1,3.5-2.2,3.9-1.4C691.2,202.8,689.9,201,686.5,204.4z"/>
			<path class="st9" d="M509.7,209.2c8.8-7.1,20.3-19.7,29.7-32.3c11.5-15,33.3-45.3,45.6-66.8c1.3-2.5,3.2-7.3,2.8-10.1
				c-0.3,2.7-1.7,6.1-2.8,8.1c-12.4,21.5-34.1,51.8-45.6,66.8c-9.4,12.6-20.9,25.3-29.7,32.3c-1.9,1.6-2.2,3-1.5,3.7
				C508.5,210.4,508.9,209.8,509.7,209.2z"/>
			<path class="st9" d="M573.4,100.6c0.1-0.2,0.3-0.3,0.5-0.5c9.1-7.1,28.8-14.7,39.7-15c8.2,0,11.9,2.7,12.3,7
				c0.5-5.4-2.9-9-12.3-9c-10.9,0.3-30.6,7.9-39.7,15C572.4,99.5,572.4,100.5,573.4,100.6z"/>
			<path class="st9" d="M665,116.7c1.3-2.5,3.2-7.3,2.8-10.1c-0.3,2.7-1.7,6.1-2.8,8.1c-12.4,21.5-34.1,51.8-45.6,66.8
				c-5.5,7.4-11.7,14.8-17.7,21c-11.1,10.5-32.9,29.1-49.4,35.3c-14.2,5.3-19.8,2.8-20.3-3.9c-0.5,8.1,4.8,11.7,20.3,5.9
				c16.5-6.3,38.3-24.8,49.4-35.3c6-6.3,12.2-13.6,17.7-21C630.9,168.4,652.7,138.1,665,116.7z"/>
		</g>
		<g class="st11">
			<path class="st9" d="M456.6,226.6c-8.9,7.6-17.3,11.7-18.4,8c-1.3,6.7,8.2,2.6,18.4-6c15.9-14.4,38.6-42.1,52.1-62.3
				c4.4-10.3,10.3-22.1,16.5-23.8c7.6-2.3,12.7,1.7,13.5,5.5c1-4.1-4.5-10.2-13.5-7.5c-6.2,1.8-12.1,13.5-16.5,23.8
				C495.1,184.5,472.4,212.2,456.6,226.6z"/>
			<path class="st9" d="M448.7,173.8c-0.3,1.5-1.3,3.3-3,5.2c-9.4,10.9-25.9,29.7-30,41.8c-1.6,4.8-2.2,9-2.1,12.4
				c0.1-3,0.8-6.4,2.1-10.4c4.1-12.1,20.6-30.9,30-41.8C448.2,178.1,449.1,175.4,448.7,173.8z"/>
			<path class="st9" d="M395,208c11.8-9.7,26.8-27.3,38-35.9c15.4-11.9,33.9-7.1,34.6,8c0.9-16.6-18.5-22.4-34.6-10
				c-11.2,8.5-26.2,26.2-38,35.9c-1.9,1.6-2.4,3.5-1.8,4.3C393.6,209.6,394.1,208.8,395,208z"/>
			<path class="st9" d="M317.2,284.6c0.5-1.6,2.6-0.9,2.8,1.1c4.1,22.1,23.3,37.1,45.3,37.1c30.6,0,63-26.5,88.9-61.8
				c18.2-25,33-52.6,47.1-80c-1.4,2.2-2.9,4.3-4.4,6.5c-12.8,24.5-26.3,49.1-42.7,71.5c-25.9,35.3-58.3,61.8-88.9,61.8
				c-22.1,0-41.2-15-45.3-37.1c-0.3-2.4-3.2-2.9-2.9,0.3C317.1,284.2,317.1,284.4,317.2,284.6z"/>
		</g>
		<g class="st11">
			<path class="st9" d="M262.3,206.1c-10.3,5.3-22.7,8.2-27.7,8.2c-4.7,0-5.3,1.5-2.8,2.2c0.7-0.2,1.6-0.2,2.8-0.2
				c5,0,17.4-2.9,27.7-8.2c11.9-6.5,16.2-13.6,15.6-18.8C277.3,194.2,272.7,200.4,262.3,206.1z"/>
			<path class="st9" d="M306.3,210.3c-5.5,14.9-8.8,28.7-8.6,40c0.3-11.7,3.9-26,9.8-41.2C307.1,209.5,306.7,209.9,306.3,210.3z"/>
			<path class="st9" d="M218.6,234.9c-0.4,9.5,4.7,16.4,15.1,16.2c16.6-0.2,43.3-19.9,60.3-34.5c0.5-0.6,1.1-1.2,1.8-1.9
				c6.2-5.3,11.2-12.1,18-20.3c19.7-43.5,42.4-77,77.1-109.1c34.5-31.7,63.2-26.8,64.2-6.7c0.9-21.8-28.6-28-64.2,4.7
				c-34.7,32.1-57.4,65.6-77.1,109.1c-6.8,8.2-11.8,15-18,20.3c-0.7,0.6-1.3,1.3-1.8,1.9c-17,14.6-43.7,34.2-60.3,34.5
				C224,249.3,219,243.3,218.6,234.9z"/>
			<path class="st9" d="M372.3,151.2c-3.2,1.4-3.7,3-2.7,3.8c0.5-0.6,1.4-1.2,2.7-1.8c18.2-8.2,44.7-27.3,58.9-42.1
				C443.8,97.9,448.7,88.6,448,84c-0.6,5.1-5.8,13.6-16.8,25.2C417,123.9,390.5,143,372.3,151.2z"/>
			<path class="st9" d="M368.8,200.9c7.6-5.8,10.8-12.9,10.4-18.4c-0.4,5.1-3.7,11.3-10.4,16.4c-11.2,8.5-33.3,15-40.3,10.9
				l-1.5-0.9c-0.6-1-1.2-2.1-1.8-3.1c-0.2,0.2-0.4,0.5-0.6,0.7c0.6,1.5,1.5,2.9,2.4,4.4l1.5,0.9
				C335.5,215.9,357.6,209.4,368.8,200.9z"/>
			<path class="st9" d="M392,232.4c0,5-5,8.3-10.6,9.1c-12.5,1.9-36.5-11.7-49.6-26.6c-0.8-0.2-1.5-0.4-2.2-0.6
				c12.4,15.9,38.6,31.4,51.8,29.4c5.6-0.9,10.6-4.5,10.6-8.9c0-0.6,1-0.9,1.3-0.5c0.1-0.5,0.1-0.9,0.1-1.9H392z"/>
			<path class="st9" d="M264,172.8c14.2,0.4,21.3,6.1,21.9,13.5c0.6-8.3-6.4-15-21.9-15.5c-32.7-1.2-71.8,26.8-71.5,61.8
				c0,0.1,0,0.2,0,0.4C193.5,198.7,231.9,171.6,264,172.8z"/>
			<path class="st9" d="M368.5,162.7c-10.8,4.4-23.3,13.2-36.5,28.8c-2.1,3.3-4.1,6.4-5.9,9.4c15.3-20.3,30-31.2,42.4-36.2
				c17.7-6.8,30.8-1,31.6,9.8C400.8,162.4,387.2,155.5,368.5,162.7z"/>
			<path class="st9" d="M306.5,258c-0.1,7,1,12.5,3.6,15.6c0.5-0.3,0.8-0.9,0.1-1.9C307.9,269,306.7,264.1,306.5,258z"/>
		</g>
		<g class="st11">
			<path class="st9" d="M177.7,169.2c0.5-0.5,1.1-0.9,1.6-0.9c3.5-0.3,9.7,1.2,12.1,10.3c0.5,2.2,0.8,4.7,0.9,7.2
				c0-3.3-0.2-6.4-0.9-9.2c-2.4-9.1-8.5-10.6-12.1-10.3C178.2,166.4,176.2,168.3,177.7,169.2z"/>
			<path class="st9" d="M0.2,284.1c0.6-1.3,2.6-0.6,2.9,1.3c4.1,22.1,23,37.1,45,37.1c27.7,0,68-33.8,94.5-70.6
				c6.8-9.1,24.4-35.3,33.6-55.6c-0.7,0.9-1.4,1.7-2.2,2.6c-9.5,19.5-25.1,42.6-31.4,51C116,286.6,75.7,320.4,48,320.4
				c-22.1,0-40.9-15-45-37.1c-0.3-2.4-3.5-2.9-2.9,0.3C0.1,283.8,0.1,284,0.2,284.1z"/>
			<path class="st9" d="M158.4,207.8c5.9-4.7,20.9-18.5,23-30.6c0-0.5,0-1-0.1-1.4c-2.4,11.9-17,25.4-22.8,30
				c-0.6,0.6-0.6,1.6-0.3,2.4C158.2,208,158.3,207.9,158.4,207.8z"/>
		</g>
		<path class="st12" d="M194.3,139.5c5.3-6.2,13.2-8.2,17.7-4.7c1.6,1.3,2.5,3.2,2.8,5.4c0.2-3-0.6-5.7-2.8-7.4
			c-4.4-3.5-12.4-1.5-17.7,4.7c-3.5,3.9-5.2,8.4-4.8,12C189.8,146.4,191.4,142.8,194.3,139.5z"/>
	</g>
</g>
</svg>
