<?xml version="1.0" encoding="utf-8"?>
<!-- Generator: Adobe Illustrator 19.0.1, SVG Export Plug-In . SVG Version: 6.00 Build 0)  -->
<svg version="1.1" xmlns="http://www.w3.org/2000/svg" xmlns:xlink="http://www.w3.org/1999/xlink" x="0px" y="0px"
	 viewBox="0 0 113.4 113.4" style="enable-background:new 0 0 113.4 113.4;" xml:space="preserve">
<style type="text/css">
	.st0{fill:url(#SVGID_1_);}
	.st1{fill:#FFFFFF;}
</style>
<g id="Layer_1">
	<g id="code_x5F_html5">
	</g>
	<g>
		<linearGradient id="SVGID_1_" gradientUnits="userSpaceOnUse" x1="3.7768" y1="97.5984" x2="101.6658" y2="21.929">
			<stop  offset="0" style="stop-color:#121134"/>
			<stop  offset="1" style="stop-color:#602D50"/>
		</linearGradient>
		<path class="st0" d="M113.4,98.2c0,8.4-6.8,15.2-15.2,15.2H15.2C6.8,113.4,0,106.6,0,98.2V15.2C0,6.8,6.8,0,15.2,0h82.9
			c8.4,0,15.2,6.8,15.2,15.2V98.2z"/>
		<g>
			<path class="st1" d="M27.3,21.2h33.1c18.7,0,22.8,13.3,22.8,18.6c0,10.6-6,13.4-9,14.6c4.6,1.3,12,5.2,12,18.7
				c0,3.9-0.5,19.1-24.9,19.1h-34V21.2z M45.6,48.9h10.1c7.5,0,8.2-4.9,8.2-7.2c0-2.2-1.4-6.9-8.1-6.9H45.6V48.9z M45.6,79.8h11.6
				c9.6,0,10.2-6.8,10.2-9.1c0-2.2-0.8-9-10.2-9H45.6V79.8z"/>
		</g>
	</g>
</g>
<g id="Layer_2">
</g>
</svg>
