<?xml version="1.0" encoding="utf-8"?>
<!-- Generator: Adobe Illustrator 19.0.1, SVG Export Plug-In . SVG Version: 6.00 Build 0)  -->
<svg version="1.1" id="Layer_1" xmlns="http://www.w3.org/2000/svg" xmlns:xlink="http://www.w3.org/1999/xlink" x="0px" y="0px"
	 viewBox="-73 -16 451 512" style="enable-background:new -73 -16 451 512;" xml:space="preserve">
<style type="text/css">
	.st0{fill:#E34F26;}
	.st1{fill:#EF652A;}
	.st2{fill:#EBEBEB;}
	.st3{fill:#FFFFFF;}
</style>
<title>HTML5 Logo Badge</title>
<path class="st0" d="M-32,444L-73-16h451l-41,460l-185,52"/>
<path class="st1" d="M153,456l149-41l35-394H153"/>
<path class="st2" d="M153,192H78l-5-58h80V78h-1H11l1,15l14,156h127V192z M153,339h-1l-63-17l-4-45H55H29l7,89l116,32h1V339z"/>
<path class="st3" d="M152,192v57h70l-7,73l-63,17v59l116-32l1-10l13-149l2-15h-16H152z M152,78v35v21l0,0h137l0,0l0,0l1-12l3-29
	l1-15H152z"/>
</svg>
