<?xml version="1.0" encoding="utf-8"?>
<!-- Generator: Adobe Illustrator 19.0.1, SVG Export Plug-In . SVG Version: 6.00 Build 0)  -->
<svg version="1.1" id="Layer_1" xmlns="http://www.w3.org/2000/svg" xmlns:xlink="http://www.w3.org/1999/xlink" x="0px" y="0px"
	 viewBox="145.1 25.2 429.7 429.7" style="enable-background:new 145.1 25.2 429.7 429.7;" xml:space="preserve">
<style type="text/css">
	.st0{fill:#FFB13B;}
</style>
<title>SVG Logo</title>
<desc>
	Designed for the SVG Logo Contest in 2006 by Harvey Rayner, and adopted by W3C in 2009. It is available under the Creative Commons license for those who have an SVG product or who are using SVG on their site.
	</desc>
<path d="M558.8,278.8c21.4-21.4,21.4-56.2,0-77.6c-19.3-19.3-49.7-21.2-71.1-5.6h-20.6l14.6-14.6c26.2-4.1,46.3-26.9,46.3-54.2
	c0-30.3-24.6-54.9-54.9-54.9c-27.4,0-50.1,20.1-54.2,46.3l-14.6,14.6v-20.6c15.6-21.4,13.8-51.8-5.6-71.1
	c-21.4-21.4-56.2-21.4-77.6,0c-19.3,19.3-21.2,49.7-5.6,71.1v20.6l-14.6-14.6C297,92.1,274.2,72,246.9,72
	c-30.3,0-54.9,24.6-54.9,54.9c0,27.4,20.1,50.1,46.3,54.2l14.6,14.6h-20.6c-9.3-6.8-20.5-10.5-32.3-10.5c-14.7,0-28.4,5.7-38.8,16.1
	c-10.4,10.4-16.1,24.1-16.1,38.8c0,14.7,5.7,28.4,16.1,38.8c10.7,10.7,24.7,16,38.8,16c11.4,0,22.7-3.5,32.3-10.5h20.6l-14.6,14.6
	c-26.2,4.1-46.3,26.9-46.3,54.2c0,30.3,24.6,54.9,54.9,54.9c27.4,0,50.1-20.1,54.2-46.3l14.6-14.6v20.6
	c-15.6,21.4-13.8,51.8,5.6,71.1c10.7,10.7,24.7,16,38.8,16c14.1,0,28.1-5.3,38.8-16c19.3-19.3,21.2-49.7,5.6-71.1v-20.6l14.6,14.6
	c4.1,26.2,26.9,46.3,54.2,46.3c30.3,0,54.9-24.6,54.9-54.9c0-27.4-20.1-50.1-46.3-54.2l-14.6-14.6h20.6
	C509.1,300,539.5,298.1,558.8,278.8z"/>
<path class="st0" d="M545.4,214.6c-14-14-36.7-14-50.7,0h-73.4l51.9-51.9c19.8,0,35.9-16.1,35.9-35.9c0-19.8-16.1-35.9-35.9-35.9
	c-19.8,0-35.9,16.1-35.9,35.9l-51.9,51.9v-73.4c14-14,14-36.7,0-50.7c-14-14-36.7-14-50.7,0c-14,14-14,36.7,0,50.7v73.4l-51.9-51.9
	c0-19.8-16.1-35.9-35.9-35.9c-19.8,0-35.9,16.1-35.9,35.9c0,19.8,16.1,35.9,35.9,35.9l51.9,51.9h-73.4c-14-14-36.7-14-50.7,0
	c-14,14-14,36.7,0,50.7c14,14,36.7,14,50.7,0h73.4l-51.9,51.9c-19.8,0-35.9,16.1-35.9,35.9c0,19.8,16.1,35.9,35.9,35.9
	c19.8,0,35.9-16.1,35.9-35.9l51.9-51.9v73.4c-14,14-14,36.7,0,50.7c14,14,36.7,14,50.7,0c14-14,14-36.7,0-50.7v-73.4l51.9,51.9
	c0,19.8,16.1,35.9,35.9,35.9c19.8,0,35.9-16.1,35.9-35.9c0-19.8-16.1-35.9-35.9-35.9l-51.9-51.9h73.4c14,14,36.7,14,50.7,0
	C559.4,251.4,559.4,228.6,545.4,214.6z"/>
</svg>
